<svg width="180" height="142" viewBox="0 0 180 142" fill="none" xmlns="http://www.w3.org/2000/svg">
<ellipse cx="10" cy="11" rx="10" ry="11" fill="#C4C4C4"/>
<ellipse cx="64" cy="11" rx="10" ry="11" fill="#C4C4C4"/>
<ellipse cx="37" cy="11" rx="10" ry="11" fill="#C4C4C4"/>
<ellipse cx="89" cy="11" rx="10" ry="11" fill="#C4C4C4"/>
<ellipse cx="143" cy="11" rx="10" ry="11" fill="#C4C4C4"/>
<ellipse cx="170" cy="11" rx="10" ry="11" fill="#C4C4C4"/>
<ellipse cx="116" cy="11" rx="10" ry="11" fill="#C4C4C4"/>
<ellipse cx="10" cy="41" rx="10" ry="11" fill="#C4C4C4"/>
<ellipse cx="64" cy="41" rx="10" ry="11" fill="#C4C4C4"/>
<ellipse cx="37" cy="41" rx="10" ry="11" fill="#C4C4C4"/>
<ellipse cx="89" cy="41" rx="10" ry="11" fill="#C4C4C4"/>
<ellipse cx="143" cy="41" rx="10" ry="11" fill="#C4C4C4"/>
<ellipse cx="170" cy="41" rx="10" ry="11" fill="#C4C4C4"/>
<ellipse cx="116" cy="41" rx="10" ry="11" fill="#C4C4C4"/>
<ellipse cx="10" cy="71" rx="10" ry="11" fill="#C4C4C4"/>
<ellipse cx="64" cy="71" rx="10" ry="11" fill="#C4C4C4"/>
<ellipse cx="37" cy="71" rx="10" ry="11" fill="#C4C4C4"/>
<ellipse cx="89" cy="71" rx="10" ry="11" fill="#C4C4C4"/>
<ellipse cx="143" cy="71" rx="10" ry="11" fill="#C4C4C4"/>
<ellipse cx="170" cy="71" rx="10" ry="11" fill="#C4C4C4"/>
<ellipse cx="116" cy="71" rx="10" ry="11" fill="#C4C4C4"/>
<ellipse cx="10" cy="101" rx="10" ry="11" fill="#C4C4C4"/>
<ellipse cx="64" cy="101" rx="10" ry="11" fill="#C4C4C4"/>
<ellipse cx="37" cy="101" rx="10" ry="11" fill="#C4C4C4"/>
<ellipse cx="10" cy="131" rx="10" ry="11" fill="#C4C4C4"/>
<ellipse cx="37" cy="131" rx="10" ry="11" fill="#C4C4C4"/>
<ellipse cx="89" cy="101" rx="10" ry="11" fill="#C4C4C4"/>
<ellipse cx="143" cy="101" rx="10" ry="11" fill="#C4C4C4"/>
<ellipse cx="170" cy="101" rx="10" ry="11" fill="#C4C4C4"/>
<ellipse cx="116" cy="101" rx="10" ry="11" fill="#C4C4C4"/>
<path d="M101.5 71.5C101.5 79.2847 95.8536 85.5 89 85.5C82.1464 85.5 76.5 79.2847 76.5 71.5C76.5 63.7153 82.1464 57.5 89 57.5C95.8536 57.5 101.5 63.7153 101.5 71.5Z" stroke="white"/>
</svg>
